<?xml version="1.0" encoding="UTF-8"?><svg id="Layer_2" xmlns="http://www.w3.org/2000/svg" viewBox="0 0 670.04 120.38"><defs><style>.cls-1{fill:#f4b823;}.cls-2{fill:#d7561f;}.cls-3{fill:#1980c2;}</style></defs><g id="Layer_1-2"><path class="cls-2" d="M279.76,56.78c0,32.48,26.33,58.81,58.81,58.81h46.75c4.45,0,6.68-5.38,3.53-8.53L288.29,6.5c-3.15-3.15-8.53-.92-8.53,3.53v46.75Z"/><path class="cls-3" d="M471.37,0c-33.18.25-59.73,27.75-59.73,60.94v49.6c0,2.77,2.25,5.02,5.02,5.02,1.88,0,3.52-1.04,4.38-2.57h0s0,0,0,0c10.68-16.75,29.43-27.87,50.78-27.87s40.09,11.11,50.78,27.87h0s0,0,0,0c.86,1.53,2.5,2.57,4.38,2.57,2.77,0,5.02-2.25,5.02-5.02v-45.31s0-5.04,0-5.04C532.01,26.8,504.82-.24,471.37,0Z"/><circle cx="200.16" cy="60.19" r="60.19"/><path d="M120.37,9.9c0-2.77-2.25-5.02-5.02-5.02-1.88,0-3.52,1.04-4.38,2.57h0s0,0,0,0c-10.68,16.75-29.43,27.87-50.78,27.87S20.09,24.2,9.41,7.45h0s0,0,0,0c-.86-1.53-2.5-2.57-4.38-2.57C2.25,4.88,0,7.12,0,9.9v98.18c0,4.14,3.35,7.49,7.49,7.49h105.39c4.14,0,7.49-3.35,7.49-7.49V9.9Z"/><path class="cls-1" d="M631.59,38.34h0s0,0,0,0h0c-.15-21.37-17.68-38.62-39.16-38.31-21.19.3-38.03,17.97-38.03,39.17v69.68c0,3.68,2.98,6.66,6.66,6.66h69.82c21.19,0,38.86-16.84,39.17-38.03.31-21.52-17.01-39.07-38.45-39.16Z"/></g></svg>